<svg version="1.2" baseProfile="tiny" xmlns="http://www.w3.org/2000/svg" viewBox="0 0 431 67"><path fill="#FFF" d="M0 0v67h431V0H0zm44 65c-17.4 0-31.5-14.1-31.5-31.5C12.4 16.1 26.5 2 44 2c17.4 0 31.5 14.1 31.5 31.5S61.4 65 44 65z"/><path d="M97.1 43.9l-4.7-7.3h-2.6v7.3H87V26.1h6c4.3 0 6.6 1.8 6.6 5.1 0 2.8-1.7 4.8-4.2 5.3l4.9 7.5h-3.2zm-1.6-15c-.6-.4-.8-.5-2.9-.5h-2.8v5.9h2.8c1.8 0 2.2-.1 3-.7.7-.6 1-1.3 1-2.3 0-1.1-.4-1.9-1.1-2.4zM106.2 43.9V26.1h11v2.3H109v5.1h6.8v2.4H109v5.6h8.4v2.3h-11.2zM135.5 43.9l-2.1-5h-7.6l-2 5H121l7.3-18.3h2.8l7.3 18.3h-2.9zm-5.9-15.2l-3.1 8h6.1l-3-8zM155.3 41.4c-1.6 1.7-3.9 2.5-7.3 2.5h-6.6V26.1h6.6c3.4 0 5.7.8 7.4 2.5 1.5 1.5 2.5 4.2 2.5 6.4 0 2.3-1 4.8-2.6 6.4zm-2.8-11.7c-1.1-.9-2.3-1.2-4.8-1.2h-3.5v13.1h3.3c2.6 0 3.8-.3 5-1.3 1.4-1.2 2.4-3.3 2.4-5.3 0-2.1-.9-4.1-2.4-5.3zM163.4 43.9V26.1h2.8v17.8h-2.8zM188.6 44.1l-10.1-12.8c-.6-.8-.8-1.2-.9-1.6V44H175V26.1h2.8l10.1 12.7c.3.4.6 1.1.7 1.6V26.1h2.6v18h-2.6zM213.6 43.6c-1.6.4-3.8.7-5.3.7-6.1 0-10.6-4-10.6-9.3 0-5.2 4.4-9.2 10.4-9.2 1.4 0 3.1.2 4.1.4.9.2 1.4.4 2.7 1.1l-1.2 2.3c-.6-.3-1-.6-1.2-.7-1.2-.5-2.9-.9-4.3-.9-4.3 0-7.5 2.9-7.5 6.7 0 4.1 3.5 7.1 8.1 7.1.9 0 1.7-.1 3.4-.4v-5.6h2.8v7.3c-.6.3-1.1.4-1.4.5zM235.7 43.6c-1.6.4-3.8.7-5.3.7-6.1 0-10.6-4-10.6-9.3 0-5.2 4.4-9.2 10.4-9.2 1.4 0 3.1.2 4.1.4.9.2 1.4.4 2.6 1.1l-1.2 2.3c-.6-.3-1-.6-1.2-.7-1.2-.5-2.9-.9-4.3-.9-4.3 0-7.5 2.9-7.5 6.7 0 4.1 3.5 7.1 8.1 7.1.9 0 1.7-.1 3.4-.4v-5.6h2.8v7.3c-.4.3-.9.4-1.3.5zM244.2 43.9V26.1h2.8v15.5h8.4v2.3h-11.2zM271.9 43.9l-2.1-5h-7.6l-2 5h-2.8l7.3-18.3h2.8l7.3 18.3h-2.9zm-5.8-15.2l-3.1 8h6.1l-3-8zM289 29.6c-.9-.6-1.3-.8-2.2-1.1-.9-.3-1.7-.4-2.5-.4-2.3 0-3.7.8-3.7 2.2 0 .4.1.7.2.9.5.8 1.1 1.1 4.6 2.8 3.4 1.6 4.4 2.9 4.4 5.1 0 3.2-2.5 5.1-6.5 5.1-1.3 0-2.6-.2-3.7-.6-.7-.3-1.3-.6-2.5-1.3l1.3-2.4c1.1.8 1.6 1.1 2.3 1.4.9.4 1.9.6 3 .6 2.1 0 3.3-.9 3.3-2.4 0-1.2-.6-2-2-2.6l-3.2-1.6c-2.7-1.3-4-2.8-4-4.7 0-2.9 2.5-4.8 6.5-4.8 1.2 0 2.3.1 3.3.4.8.2 1.3.4 2.4 1l-1 2.4zM306.3 29.6c-.9-.6-1.3-.8-2.2-1.1-.9-.3-1.7-.4-2.5-.4-2.3 0-3.7.8-3.7 2.2 0 .4.1.7.2.9.5.8 1.1 1.1 4.6 2.8 3.4 1.6 4.4 2.9 4.4 5.1 0 3.2-2.5 5.1-6.5 5.1-1.3 0-2.6-.2-3.7-.6-.7-.3-1.3-.6-2.5-1.3l1.3-2.4c1.1.8 1.6 1.1 2.3 1.4.9.4 1.9.6 3 .6 2.1 0 3.3-.9 3.3-2.4 0-1.2-.6-2-2-2.6l-3.2-1.6c-2.7-1.3-3.9-2.8-3.9-4.7 0-2.9 2.5-4.8 6.5-4.8 1.2 0 2.3.1 3.3.4.8.2 1.3.4 2.4 1l-1.1 2.4zM312.8 43.9V26.1h11v2.3h-8.2v5.1h6.8v2.4h-6.8v5.6h8.4v2.3h-11.2zM340.3 29.6c-.9-.6-1.3-.8-2.2-1.1-.9-.3-1.7-.4-2.5-.4-2.3 0-3.7.8-3.7 2.2 0 .4.1.7.2.9.5.8 1.1 1.1 4.6 2.8 3.4 1.6 4.4 2.9 4.4 5.1 0 3.2-2.5 5.1-6.5 5.1-1.3 0-2.6-.2-3.7-.6-.7-.3-1.3-.6-2.5-1.3l1.3-2.4c1.1.8 1.6 1.1 2.3 1.4.9.4 1.9.6 2.9.6 2.1 0 3.3-.9 3.3-2.4 0-1.2-.6-2-2-2.6l-3.2-1.6c-2.7-1.3-4-2.8-4-4.7 0-2.9 2.5-4.8 6.5-4.8 1.2 0 2.3.1 3.3.4.8.2 1.3.4 2.4 1l-.9 2.4zM348.3 44.3c-1.2 0-2.1-.9-2.1-2.1 0-1.2.9-2.1 2.1-2.1 1.2 0 2.1.9 2.1 2.1 0 1.2-.9 2.1-2.1 2.1zM369.7 29.6c-.8-.6-1.2-.8-1.8-1-.8-.3-1.9-.4-2.9-.4-4 0-6.8 2.7-6.8 6.6 0 2.1.8 3.9 2.1 5.3 1.3 1.3 3 1.9 5.6 1.9 1.7 0 2.5-.2 4-.9l.8 2.1c-2 .8-3.6 1.2-5.3 1.2-6 0-10.1-3.8-10.1-9.3 0-5.2 4.3-9.2 9.9-9.2 2.3 0 4 .5 6 1.7l-1.5 2zM384.3 44.2c-5.7 0-9.9-3.9-9.9-9.2 0-5.3 4.1-9.2 9.9-9.2 5.7 0 9.9 3.9 9.9 9.2 0 5.4-4.2 9.2-9.9 9.2zm0-16.1c-3.9 0-6.9 2.9-6.9 6.9 0 3.9 3 6.9 6.9 6.9 3.9 0 6.9-3 6.9-6.9 0-3.9-3-6.9-6.9-6.9zM415.8 43.9V29.7c-.2.9-.3 1.2-.7 2.1l-5.5 12.1h-2.2l-4.9-11.4c-.4-1-.6-1.3-.7-2.3v13.7H399V26.1h3.6l5.8 13.2c.2.6.2.7.3 1.4.1-.6.2-.7.4-1.4l6-13.2h3.6v17.8h-2.9z"/><path fill="#FFF" d="M32.7 24.2C32.7 18 37.8 13 44.2 13c3.7 0 7.1 1.8 9.2 4.5l2.3-3.9c-3.2-1.7-7.2-2.8-11.5-2.8-10.4 0-18 6.7-18.4 15.8v12.1h7l-.1-14.5z"/><path fill="#FFF" d="M62.6 23.5h-8.8c-2.3 0-4.6.1-6.9.2-2.6.1-5.6.4-7.1 2.8-1.3 2-1.5 4.9-.5 7.1 1 2.4 3.4 3.7 5.8 4.5 1.6.5 3.5.5 5.1.6 2 .1 3.9.1 5.9.1-.1 2.1 0 4.1-.3 6.2-.4 2.8-1.7 5.5-4 7.3-2.5 2-5.8 2.1-8.9 1.7-1.5-.2-3-.8-4.3-1.6-1.1-.7-2.4-1.6-3.2-2.7-.7 1.3-1.5 2.5-2.2 3.8 6.1 3.4 14.3 3.8 20.7.9 5.4-2.5 8.7-7.5 9-13.4.2-2.9 0-5.8 0-8.7v-8.7c-.1-.1-.2-.1-.3-.1m-9.9 13.1c-.8 0-1.5-.1-2.2-.2-1.7-.3-3-.9-3.9-2.4-.8-1.3-.9-4.8-.1-6.2.9-1.4 2.2-2 3.8-2.1 1.5-.1 3.1-.1 4.6 0H56c.1 0 .1.3.1.4v10.4c0 .3 0 .2-.4.3l-3-.2z"/><path d="M105.4 60.9l-2.4-8.7-2.4 8.7h-1.4l-2.6-10.3H98l2 8.6 2.3-8.6h1.5l2.3 8.6 2.1-8.6h1.4l-2.8 10.3h-1.4zM109.7 55.7c.2-.5.4-.9.7-1.2.3-.4.7-.6 1.1-.8.5-.2 1-.3 1.6-.3.6 0 1.1.1 1.6.3.4.2.8.5 1.1.8.3.4.5.8.7 1.2.2.5.2 1 .2 1.5s-.1 1.1-.2 1.5c-.2.5-.4.9-.7 1.2-.3.4-.7.6-1.1.8-.4.2-1 .3-1.6.3-.6 0-1.1-.1-1.6-.3-.5-.2-.8-.5-1.1-.8-.3-.4-.5-.8-.7-1.2-.2-.5-.2-1-.2-1.5s0-1 .2-1.5zm1.2 2.7c.1.4.3.6.5.9.2.2.5.4.7.5.3.1.6.2.9.2.3 0 .6-.1.9-.2.3-.1.5-.3.7-.5.2-.2.4-.5.5-.9.1-.4.2-.8.2-1.2 0-.5-.1-.9-.2-1.2-.1-.4-.3-.6-.5-.9-.2-.2-.5-.4-.7-.5-.3-.1-.6-.2-.9-.2-.3 0-.6.1-.9.2-.3.1-.5.3-.7.5-.2.2-.4.5-.5.9-.1.4-.2.8-.2 1.2.1.5.1.9.2 1.2zM119.3 53.5V55c.3-.6.7-1.1 1.1-1.3.4-.3 1-.4 1.6-.4v1.3c-.5 0-.9.1-1.3.2-.3.1-.6.3-.8.6-.2.3-.4.6-.5.9-.1.4-.1.8-.1 1.3v3.3h-1.2v-7.5h1.2zM124.3 50.6v10.3H123V50.6h1.3zM131.6 60.9v-1c-.2.4-.5.7-1 .9s-.9.3-1.4.3c-.6 0-1.1-.1-1.5-.3-.4-.2-.8-.5-1.1-.9-.3-.4-.5-.8-.6-1.2-.1-.5-.2-1-.2-1.5s.1-1 .2-1.5.4-.9.6-1.2.6-.6 1.1-.8c.4-.2.9-.3 1.5-.3.2 0 .4 0 .6.1.2 0 .4.1.7.2.2.1.4.2.6.4.2.1.4.3.5.6v-3.8h1.2v10.3h-1.2zm-4.4-2.6c.1.3.2.6.4.9.2.3.4.5.7.6.3.2.6.2 1 .2s.8-.1 1.1-.2c.3-.2.5-.4.7-.6.2-.3.3-.6.4-.9.1-.3.1-.7.1-1 0-.4 0-.7-.1-1.1-.1-.3-.2-.6-.4-.9-.2-.3-.4-.5-.7-.6-.3-.2-.7-.2-1.1-.2-.4 0-.8.1-1.1.2-.3.2-.5.4-.7.6-.2.3-.3.6-.4.9-.1.3-.1.7-.1 1.1.1.3.1.7.2 1zM136.6 50.6v1.6c0 .3 0 .6-.1.8-.1.3-.2.5-.3.7-.1.2-.3.3-.5.5-.2.1-.4.2-.7.2v-.7c.2 0 .3 0 .4-.1l.3-.3c.1-.1.1-.3.1-.5v-.5h-.8v-1.6h1.6zM138.6 59.3c.1.2.3.3.5.4s.4.2.6.2c.2 0 .5.1.7.1h.6c.2 0 .4-.1.6-.2.2-.1.3-.2.4-.3.1-.1.2-.3.2-.6s-.1-.6-.4-.7c-.2-.2-.5-.3-.9-.4l-1.2-.3-1.2-.3c-.4-.1-.7-.4-.9-.6-.2-.3-.4-.6-.4-1.1 0-.4.1-.7.3-1 .2-.3.4-.5.7-.7.3-.2.6-.3.9-.4.3-.1.7-.1 1-.1.4 0 .8 0 1.2.1.4.1.7.2.9.4.3.2.5.4.7.7.2.3.3.7.3 1.1H142c0-.2-.1-.4-.2-.6-.1-.2-.2-.3-.4-.4-.2-.1-.3-.2-.5-.2s-.4-.1-.6-.1h-.6c-.2 0-.4.1-.5.2-.2.1-.3.2-.4.3-.1.1-.1.3-.1.5s.1.4.2.5c.1.1.3.3.6.3.2.1.5.2.8.2.3.1.6.1.9.2.3.1.6.1.9.2.3.1.6.2.8.4.2.2.4.4.5.6.1.2.2.5.2.9 0 .5-.1.8-.3 1.1-.2.3-.4.5-.7.7-.3.2-.6.3-1 .4-.4.1-.8.1-1.1.1-.4 0-.8 0-1.2-.1-.4-.1-.7-.2-1-.4-.3-.2-.5-.5-.7-.8-.2-.3-.3-.7-.3-1.2h1.2c-.1.5 0 .7.1.9zM150.5 50.6v9.1h5.5v1.2h-6.8V50.6h1.3zM162.7 61.1c-.3 0-.6-.1-.8-.3-.2-.2-.3-.5-.3-.9-.3.4-.7.7-1.2.9-.4.2-.9.3-1.5.3-.3 0-.7 0-1-.1-.3-.1-.6-.2-.8-.4-.2-.2-.4-.4-.5-.6-.1-.3-.2-.6-.2-1s.1-.8.2-1c.1-.3.3-.5.6-.7.2-.2.5-.3.8-.4.3-.1.6-.2.9-.2.3-.1.7-.1 1-.2.3 0 .6-.1.8-.1.2-.1.4-.2.5-.3.1-.1.2-.3.2-.5 0-.3-.1-.5-.2-.6-.1-.2-.2-.3-.4-.4-.2-.1-.3-.1-.5-.2h-.6c-.5 0-1 .1-1.3.3-.3.2-.5.6-.6 1.1h-1.2c0-.5.1-.9.3-1.2.2-.3.4-.6.7-.8.3-.2.6-.3 1-.4.4-.1.8-.1 1.2-.1.3 0 .7 0 1 .1.3 0 .6.1.9.3.3.1.5.4.6.6.2.3.2.6.2 1.1v3.8c0 .3 0 .5.1.6 0 .1.1.2.3.2.1 0 .2 0 .4-.1v1c0 .1-.3.2-.6.2zm-1.7-3.8c-.3.1-.5.1-.8.1-.3 0-.6.1-.8.1-.3 0-.5.1-.8.2-.2.1-.4.2-.5.4-.1.2-.2.4-.2.7 0 .2 0 .4.1.5.1.1.2.3.3.3.1.1.3.1.5.2.2 0 .4.1.5.1.4 0 .8-.1 1-.2.3-.1.5-.2.7-.4.2-.2.3-.4.4-.5.1-.2.1-.4.1-.6v-1.3c-.1.3-.3.4-.5.4zM165.8 53.5V55c.3-.6.7-1.1 1.1-1.3.4-.3 1-.4 1.6-.4v1.3c-.5 0-.9.1-1.3.2-.3.1-.6.3-.8.6-.2.3-.4.6-.5.9-.1.4-.1.8-.1 1.3v3.3h-1.2v-7.5h1.2zM174.7 63c-.6.6-1.4.9-2.6.9-.3 0-.7 0-1.1-.1-.4-.1-.7-.2-1-.4-.3-.2-.5-.4-.7-.7-.2-.3-.3-.6-.3-1h1.2c0 .2.1.4.2.6.1.2.3.3.5.4.2.1.4.2.6.2.2 0 .4.1.6.1.4 0 .7-.1 1-.2.3-.1.5-.3.7-.6.2-.2.3-.5.4-.9.1-.3.1-.7.1-1.1v-.5c-.2.5-.5.8-1 1-.4.2-.9.3-1.4.3-.6 0-1-.1-1.5-.3-.4-.2-.8-.5-1-.8-.3-.3-.5-.7-.6-1.2-.1-.5-.2-.9-.2-1.4 0-.4.1-.9.2-1.4.1-.5.3-.9.6-1.3s.6-.7 1.1-.9c.4-.2 1-.4 1.6-.4.5 0 .9.1 1.3.3.4.2.7.5.9.9v-1.1h1.2v6.8c0 1.3-.2 2.2-.8 2.8zm-1.6-3.3c.3-.2.5-.4.7-.7.2-.3.3-.6.4-.9.1-.3.1-.7.1-1 0-.3 0-.6-.1-1-.1-.3-.2-.6-.4-.9-.2-.3-.4-.5-.7-.6-.3-.2-.6-.2-1-.2s-.7.1-1 .2c-.3.1-.5.3-.7.6-.2.2-.3.5-.4.9-.1.3-.1.7-.1 1 0 .3 0 .7.1 1l.3.9c.2.3.4.5.6.7.3.2.6.3 1 .3.6-.1.9-.1 1.2-.3zM182.7 60.5c-.6.4-1.3.6-2.1.6-.6 0-1.1-.1-1.6-.3-.4-.2-.8-.5-1.1-.8-.3-.3-.5-.8-.7-1.2-.1-.5-.2-1-.3-1.6 0-.6.1-1.1.3-1.6.2-.5.4-.9.7-1.2.3-.3.7-.6 1.1-.8.4-.2.9-.3 1.4-.3.7 0 1.2.1 1.7.4.4.3.8.6 1.1 1 .3.4.4.9.5 1.4.1.5.1 1 .1 1.4h-5.6c0 .3 0 .6.1.9.1.3.2.6.4.8.2.2.4.4.7.5.3.1.7.2 1.1.2.5 0 .9-.1 1.3-.4.3-.2.6-.6.7-1.1h1.2c-.1 1-.5 1.6-1 2.1zm-.3-4.8c-.1-.3-.3-.5-.4-.7-.2-.2-.4-.3-.7-.4-.3-.1-.5-.2-.8-.2-.3 0-.6.1-.9.2-.3.1-.5.3-.7.5-.2.2-.3.4-.4.7-.1.3-.2.5-.2.8h4.3c-.1-.4-.1-.7-.2-.9zM186.1 59.3c.1.2.3.3.5.4s.4.2.6.2c.2 0 .5.1.7.1h.6c.2 0 .4-.1.6-.2.2-.1.3-.2.4-.3.1-.1.2-.3.2-.6s-.1-.6-.4-.7c-.2-.2-.5-.3-.9-.4l-1.2-.3-1.2-.3c-.4-.1-.7-.4-.9-.6-.2-.3-.4-.6-.4-1.1 0-.4.1-.7.3-1 .2-.3.4-.5.7-.7.3-.2.6-.3.9-.4.3-.1.7-.1 1-.1.4 0 .8 0 1.2.1.4.1.7.2.9.4.3.2.5.4.7.7.2.3.3.7.3 1.1h-1.2c0-.2-.1-.4-.2-.6-.1-.2-.2-.3-.4-.4-.2-.1-.3-.2-.5-.2s-.4-.1-.6-.1h-.6c-.2 0-.4.1-.5.2-.2.1-.3.2-.4.3-.1.1-.1.3-.1.5s.1.4.2.5c.1.1.3.3.6.3.2.1.5.2.8.2.3.1.6.1.9.2.3.1.6.1.9.2.3.1.6.2.8.4.2.2.4.4.5.6.1.2.2.5.2.9 0 .5-.1.8-.3 1.1-.2.3-.4.5-.7.7-.3.2-.6.3-1 .4-.4.1-.8.1-1.1.1-.4 0-.8 0-1.2-.1-.4-.1-.7-.2-1-.4-.3-.2-.5-.5-.7-.8-.2-.3-.3-.7-.3-1.2h1.2c-.1.5 0 .7.1.9zM195.6 53.5v1.1h-1.5V59.5c0 .1.1.2.1.2.1 0 .2.1.3.1h1.1v1.1h-.9c-.3 0-.6 0-.8-.1-.2 0-.4-.1-.5-.2-.1-.1-.2-.3-.3-.5-.1-.2-.1-.5-.1-.8v-4.7h-1.3v-1.1h1.3v-2.2h1.2v2.2h1.4zM204.7 50.6c1.6 0 2.8.4 3.7 1.2.9.8 1.3 2 1.3 3.7 0 .9-.1 1.6-.3 2.3-.2.7-.5 1.2-.9 1.7s-.9.8-1.5 1c-.6.2-1.4.4-2.2.4h-3.5V50.6h3.4zm.1 9.2h.6c.2 0 .5-.1.7-.2.3-.1.5-.2.8-.4.3-.2.5-.4.7-.7.2-.3.4-.7.5-1.1.1-.4.2-1 .2-1.6 0-.6-.1-1.2-.2-1.7s-.3-.9-.6-1.2c-.3-.3-.6-.6-1.1-.8-.4-.2-1-.3-1.6-.3h-2.3v8h2.3zM216.4 60.5c-.6.4-1.3.6-2.1.6-.6 0-1.1-.1-1.6-.3-.4-.2-.8-.5-1.1-.8-.3-.3-.5-.8-.7-1.2-.1-.5-.2-1-.3-1.6 0-.6.1-1.1.3-1.6.2-.5.4-.9.7-1.2.3-.3.7-.6 1.1-.8.4-.2.9-.3 1.4-.3.7 0 1.2.1 1.7.4.4.3.8.6 1.1 1 .3.4.4.9.5 1.4.1.5.1 1 .1 1.4H212c0 .3 0 .6.1.9.1.3.2.6.4.8.2.2.4.4.7.5.3.1.6.2 1.1.2.5 0 .9-.1 1.3-.4.3-.2.6-.6.7-1.1h1.2c-.2 1-.6 1.6-1.1 2.1zm-.3-4.8c-.1-.3-.3-.5-.4-.7-.2-.2-.4-.3-.7-.4-.3-.1-.5-.2-.8-.2-.3 0-.6.1-.9.2-.3.1-.5.3-.7.5-.2.2-.3.4-.4.7-.1.3-.2.5-.2.8h4.3c0-.4-.1-.7-.2-.9zM219.8 59.3c.1.2.3.3.5.4.2.1.4.2.6.2.2 0 .5.1.7.1h.6c.2 0 .4-.1.6-.2.2-.1.3-.2.4-.3.1-.1.2-.3.2-.6s-.1-.6-.4-.7c-.2-.2-.5-.3-.9-.4l-1.2-.3-1.2-.3c-.4-.1-.7-.4-.9-.6-.2-.3-.4-.6-.4-1.1 0-.4.1-.7.3-1 .2-.3.4-.5.6-.7.3-.2.6-.3.9-.4.3-.1.7-.1 1-.1.4 0 .8 0 1.2.1.4.1.7.2.9.4.3.2.5.4.7.7.2.3.3.7.3 1.1h-1.2c0-.2-.1-.4-.2-.6-.1-.2-.2-.3-.4-.4-.2-.1-.3-.2-.5-.2s-.4-.1-.6-.1h-.6c-.2 0-.4.1-.5.2-.2.1-.3.2-.4.3-.1.1-.1.3-.1.5s.1.4.2.5c.1.1.3.3.6.3.2.1.5.2.8.2.3.1.6.1.9.2.3.1.6.1.9.2.3.1.6.2.8.4.2.2.4.4.5.6.1.2.2.5.2.9 0 .5-.1.8-.3 1.1-.2.3-.4.5-.7.7-.3.2-.6.3-1 .4-.4.1-.8.1-1.1.1-.4 0-.8 0-1.2-.1-.4-.1-.7-.2-1-.4-.3-.2-.5-.5-.7-.8-.2-.3-.3-.7-.3-1.2h1.2c0 .5.1.7.2.9zM226.1 52.1v-1.5h1.2v1.5h-1.2zm1.3 1.4V61h-1.2v-7.5h1.2zM234.9 63c-.6.6-1.4.9-2.6.9-.3 0-.7 0-1.1-.1-.4-.1-.7-.2-1-.4-.3-.2-.5-.4-.7-.7-.2-.3-.3-.6-.3-1h1.2c0 .2.1.4.2.6.1.2.3.3.5.4.2.1.4.2.6.2.2 0 .4.1.6.1.4 0 .7-.1 1-.2.3-.1.5-.3.7-.6.2-.2.3-.5.4-.9.1-.3.1-.7.1-1.1v-.5c-.2.5-.5.8-1 1-.4.2-.9.3-1.4.3-.6 0-1-.1-1.5-.3-.4-.2-.8-.5-1-.8-.3-.3-.5-.7-.6-1.2-.1-.5-.2-.9-.2-1.4 0-.4.1-.9.2-1.4.1-.5.3-.9.6-1.3s.6-.7 1.1-.9c.4-.2 1-.4 1.6-.4.5 0 .9.1 1.3.3.4.2.7.5.9.9v-1.1h1.2v6.8c0 1.3-.3 2.2-.8 2.8zm-1.6-3.3c.3-.2.5-.4.7-.7.2-.3.3-.6.4-.9.1-.3.1-.7.1-1 0-.3 0-.6-.1-1-.1-.3-.2-.6-.4-.9-.2-.3-.4-.5-.7-.6-.3-.2-.6-.2-1-.2s-.7.1-1 .2c-.3.1-.5.3-.7.6s-.3.5-.4.9c-.1.3-.1.7-.1 1 0 .3 0 .7.1 1l.3.9c.2.3.4.5.6.7.3.2.6.3 1 .3.6-.1.9-.1 1.2-.3zM238.7 53.5v1.2c.5-.9 1.3-1.4 2.4-1.4.5 0 .9.1 1.2.2.3.1.6.3.8.6.2.2.3.5.4.9.1.3.1.7.1 1.1V61h-1.2v-5c0-.5-.1-.8-.4-1.1-.3-.3-.6-.4-1.1-.4-.4 0-.7.1-1 .2-.3.1-.5.3-.7.5-.2.2-.3.5-.4.7-.1.3-.1.6-.1.9V61h-1.2v-7.5h1.2zM250.9 60.5c-.6.4-1.3.6-2.1.6-.6 0-1.1-.1-1.6-.3-.4-.2-.8-.5-1.1-.8-.3-.3-.5-.8-.7-1.2-.1-.5-.2-1-.3-1.6 0-.6.1-1.1.3-1.6.2-.5.4-.9.7-1.2.3-.3.7-.6 1.1-.8.4-.2.9-.3 1.4-.3.7 0 1.2.1 1.7.4.4.3.8.6 1.1 1 .3.4.4.9.5 1.4.1.5.1 1 .1 1.4h-5.6c0 .3 0 .6.1.9.1.3.2.6.4.8.2.2.4.4.7.5.3.1.7.2 1.1.2.5 0 .9-.1 1.3-.4.3-.2.6-.6.7-1.1h1.2c-.1 1-.5 1.6-1 2.1zm-.3-4.8c-.1-.3-.3-.5-.4-.7-.2-.2-.4-.3-.7-.4-.3-.1-.5-.2-.8-.2-.3 0-.6.1-.9.2-.3.1-.5.3-.7.5-.2.2-.3.4-.4.7-.1.3-.2.5-.2.8h4.3c0-.4-.1-.7-.2-.9zM254.5 53.5V55c.3-.6.7-1.1 1.1-1.3.4-.3 1-.4 1.6-.4v1.3c-.5 0-.9.1-1.3.2-.3.1-.6.3-.8.6-.2.3-.4.6-.5.9-.1.4-.1.8-.1 1.3v3.3h-1.2v-7.5h1.2zM267.2 50.6c1 0 1.7.2 2.3.7.6.5.8 1.1.8 2 0 .6-.1 1.2-.4 1.6-.3.5-.7.8-1.4 1 .3.1.5.2.7.3.2.1.3.3.4.5.1.2.2.4.2.6.1.2.1.5.1.7v.8c0 .3 0 .5.1.8 0 .2.1.5.2.7l.3.6H269c-.1-.1-.2-.3-.2-.4 0-.2-.1-.4-.1-.6v-.7c0-.3 0-.5-.1-.8 0-.2-.1-.5-.1-.7-.1-.2-.1-.4-.3-.6-.1-.2-.3-.3-.5-.4-.2-.1-.5-.2-.8-.2h-3.4v4.4h-1.4V50.6h5.1zm.3 4.7c.3 0 .5-.1.8-.3.2-.1.4-.3.5-.6.1-.2.2-.5.2-.9 0-.5-.1-.9-.4-1.3-.3-.3-.8-.5-1.4-.5h-3.4v3.6h2.9c.2.1.5.1.8 0zM277.3 60.5c-.6.4-1.3.6-2.1.6-.6 0-1.1-.1-1.6-.3-.4-.2-.8-.5-1.1-.8-.3-.3-.5-.8-.7-1.2-.1-.5-.2-1-.3-1.6 0-.6.1-1.1.3-1.6.2-.5.4-.9.7-1.2.3-.3.7-.6 1.1-.8.4-.2.9-.3 1.4-.3.7 0 1.2.1 1.7.4.4.3.8.6 1.1 1 .3.4.4.9.5 1.4.1.5.1 1 .1 1.4H273c0 .3 0 .6.1.9.1.3.2.6.4.8.2.2.4.4.7.5.3.1.7.2 1.1.2.5 0 .9-.1 1.3-.4.3-.2.6-.6.7-1.1h1.2c-.2 1-.6 1.6-1.2 2.1zm-.3-4.8c-.1-.3-.3-.5-.4-.7-.2-.2-.4-.3-.7-.4-.3-.1-.5-.2-.8-.2-.3 0-.6.1-.9.2-.3.1-.5.3-.7.5-.2.2-.3.4-.4.7-.1.3-.2.5-.2.8h4.3c0-.4 0-.7-.2-.9zM285.5 61.1c-.3 0-.6-.1-.8-.3-.2-.2-.3-.5-.3-.9-.3.4-.7.7-1.2.9-.4.2-.9.3-1.5.3-.3 0-.7 0-1-.1-.3-.1-.6-.2-.8-.4-.2-.2-.4-.4-.5-.6-.1-.3-.2-.6-.2-1s.1-.8.2-1c.1-.3.3-.5.6-.7.2-.2.5-.3.8-.4.3-.1.6-.2.9-.2.3-.1.7-.1 1-.2.3 0 .6-.1.8-.1.2-.1.4-.2.5-.3.1-.1.2-.3.2-.5 0-.3-.1-.5-.2-.6-.1-.2-.2-.3-.4-.4-.2-.1-.3-.1-.5-.2h-.6c-.5 0-1 .1-1.3.3-.3.2-.5.6-.6 1.1h-1.2c0-.5.1-.9.3-1.2.2-.3.4-.6.7-.8.3-.2.6-.3 1-.4.4-.1.8-.1 1.2-.1.3 0 .7 0 1 .1.3 0 .6.1.9.3.3.1.5.4.6.6.2.3.2.6.2 1.1v3.8c0 .3 0 .5.1.6 0 .1.1.2.3.2.1 0 .2 0 .4-.1v1c.1.1-.2.2-.6.2zm-1.7-3.8c-.3.1-.5.1-.8.1-.3 0-.6.1-.8.1-.3 0-.5.1-.8.2-.2.1-.4.2-.5.4-.1.2-.2.4-.2.7 0 .2 0 .4.1.5.1.1.2.3.3.3.1.1.3.1.5.2.2 0 .4.1.5.1.4 0 .8-.1 1-.2.3-.1.5-.2.7-.4.2-.2.3-.4.4-.5.1-.2.1-.4.1-.6v-1.3c0 .3-.2.4-.5.4zM293 60.9v-1c-.2.4-.5.7-1 .9-.4.2-.9.3-1.4.3-.6 0-1.1-.1-1.5-.3-.4-.2-.8-.5-1.1-.9-.3-.4-.5-.8-.6-1.2-.1-.5-.2-1-.2-1.5s.1-1 .2-1.5.4-.9.6-1.2c.3-.4.6-.6 1.1-.8.4-.2.9-.3 1.5-.3.2 0 .4 0 .6.1.2 0 .4.1.7.2.2.1.4.2.6.4.2.1.4.3.5.6v-3.8h1.2v10.3H293zm-4.4-2.6c.1.3.2.6.4.9.2.3.4.5.7.6.3.2.6.2 1 .2s.8-.1 1.1-.2c.3-.2.5-.4.7-.6.2-.3.3-.6.4-.9.1-.3.1-.7.1-1 0-.4 0-.7-.1-1.1-.1-.3-.2-.6-.4-.9-.2-.3-.4-.5-.7-.6-.3-.2-.7-.2-1.1-.2-.4 0-.8.1-1.1.2-.3.2-.5.4-.7.6-.2.3-.3.6-.4.9-.1.3-.1.7-.1 1.1.1.3.1.7.2 1zM296.2 52.1v-1.5h1.2v1.5h-1.2zm1.2 1.4V61h-1.2v-7.5h1.2zM300.5 53.5v1.2c.5-.9 1.3-1.4 2.4-1.4.5 0 .9.1 1.2.2.3.1.6.3.8.6.2.2.3.5.4.9.1.3.1.7.1 1.1V61h-1.2v-5c0-.5-.1-.8-.4-1.1-.3-.3-.6-.4-1.1-.4-.4 0-.7.1-1 .2-.3.1-.5.3-.7.5-.2.2-.3.5-.4.7-.1.3-.1.6-.1.9V61h-1.2v-7.5h1.2zM313 63c-.6.6-1.4.9-2.6.9-.3 0-.7 0-1.1-.1-.4-.1-.7-.2-1-.4-.3-.2-.5-.4-.7-.7-.2-.3-.3-.6-.3-1h1.2c0 .2.1.4.2.6.1.2.3.3.5.4.2.1.4.2.6.2.2 0 .4.1.6.1.4 0 .7-.1 1-.2.3-.1.5-.3.7-.6.2-.2.3-.5.4-.9.1-.3.1-.7.1-1.1v-.5c-.2.5-.5.8-1 1-.4.2-.9.3-1.4.3-.6 0-1-.1-1.5-.3-.4-.2-.8-.5-1-.8-.3-.3-.5-.7-.6-1.2-.1-.5-.2-.9-.2-1.4 0-.4.1-.9.2-1.4.1-.5.3-.9.6-1.3s.6-.7 1.1-.9c.4-.2 1-.4 1.6-.4.5 0 .9.1 1.3.3.4.2.7.5.9.9v-1.1h1.2v6.8c0 1.3-.3 2.2-.8 2.8zm-1.6-3.3c.3-.2.5-.4.7-.7.2-.3.3-.6.4-.9.1-.3.1-.7.1-1 0-.3 0-.6-.1-1-.1-.3-.2-.6-.4-.9-.2-.3-.4-.5-.7-.6-.3-.2-.6-.2-1-.2s-.7.1-1 .2c-.3.1-.5.3-.7.6-.2.2-.3.5-.4.9-.1.3-.1.7-.1 1 0 .3 0 .7.1 1l.3.9c.2.3.4.5.6.7.3.2.6.3 1 .3.6-.1.9-.1 1.2-.3zM326.1 60.8c-.6.2-1.2.4-1.8.4-.8 0-1.5-.1-2.1-.4-.6-.3-1.1-.7-1.5-1.1-.4-.5-.7-1-1-1.7-.2-.6-.3-1.3-.3-1.9 0-.8.1-1.5.3-2.1.2-.7.5-1.3.9-1.8s.9-.9 1.5-1.2c.6-.3 1.3-.5 2.1-.5.6 0 1.1.1 1.6.2s.9.3 1.3.6.7.6 1 1.1c.3.4.4.9.5 1.6h-1.4c-.1-.4-.2-.7-.4-1-.2-.3-.4-.5-.7-.7-.3-.2-.6-.3-.9-.4-.3-.1-.7-.1-1.1-.1-.6 0-1.2.1-1.6.4-.4.2-.8.6-1.1 1-.3.4-.5.9-.6 1.4-.1.5-.2 1.1-.2 1.6s.1 1.1.2 1.6c.2.5.4.9.7 1.3.3.4.7.7 1.1.9s.9.3 1.5.3c.5 0 1-.1 1.4-.3.4-.2.8-.4 1-.7.3-.3.5-.7.6-1.1.1-.4.2-.8.2-1.3H324v-1.2h4.5v5.4h-.9l-.4-1.3c0 .4-.5.8-1.1 1zM331.9 50.6v10.3h-1.2V50.6h1.2zM339.6 61.1c-.3 0-.6-.1-.8-.3-.2-.2-.3-.5-.3-.9-.3.4-.7.7-1.2.9-.4.2-.9.3-1.5.3-.3 0-.7 0-1-.1-.3-.1-.6-.2-.8-.4-.2-.2-.4-.4-.5-.6-.1-.3-.2-.6-.2-1s.1-.8.2-1c.1-.3.3-.5.6-.7.2-.2.5-.3.8-.4.3-.1.6-.2.9-.2.3-.1.7-.1 1-.2.3 0 .6-.1.8-.1.2-.1.4-.2.5-.3.1-.1.2-.3.2-.5 0-.3-.1-.5-.2-.6-.1-.2-.2-.3-.4-.4-.2-.1-.3-.1-.5-.2h-.6c-.5 0-1 .1-1.3.3-.3.2-.5.6-.6 1.1h-1.2c0-.5.1-.9.3-1.2.2-.3.4-.6.7-.8.3-.2.6-.3 1-.4.4-.1.8-.1 1.2-.1.3 0 .7 0 1 .1.3 0 .6.1.9.3.3.1.5.4.6.6.2.3.2.6.2 1.1v3.8c0 .3 0 .5.1.6 0 .1.1.2.3.2.1 0 .2 0 .4-.1v1c0 .1-.3.2-.6.2zm-1.8-3.8c-.3.1-.5.1-.8.1-.3 0-.6.1-.8.1-.3 0-.5.1-.8.2-.2.1-.4.2-.5.4-.1.2-.2.4-.2.7 0 .2 0 .4.1.5.1.1.2.3.3.3.1.1.3.1.5.2.2 0 .4.1.5.1.4 0 .8-.1 1-.2.3-.1.5-.2.7-.4.2-.2.3-.4.4-.5.1-.2.1-.4.1-.6v-1.3c0 .3-.2.4-.5.4zM342.5 59.3c.1.2.3.3.5.4.2.1.4.2.6.2.2 0 .5.1.7.1h.6c.2 0 .4-.1.6-.2.2-.1.3-.2.4-.3.1-.1.2-.3.2-.6s-.1-.6-.4-.7c-.2-.2-.5-.3-.9-.4l-1.2-.3-1.2-.3c-.4-.1-.7-.4-.9-.6-.2-.3-.4-.6-.4-1.1 0-.4.1-.7.3-1 .2-.3.4-.5.6-.7.3-.2.6-.3.9-.4.3-.1.7-.1 1-.1.4 0 .8 0 1.2.1.4.1.7.2.9.4.3.2.5.4.7.7.2.3.3.7.3 1.1h-1.2c0-.2-.1-.4-.2-.6-.1-.2-.2-.3-.4-.4-.2-.1-.3-.2-.5-.2s-.4-.1-.6-.1h-.6c-.2 0-.4.1-.5.2-.2.1-.3.2-.4.3-.1.1-.1.3-.1.5s.1.4.2.5c.1.1.3.3.6.3.2.1.5.2.8.2.3.1.6.1.9.2.3.1.6.1.9.2.3.1.6.2.8.4.2.2.4.4.5.6.1.2.2.5.2.9 0 .5-.1.8-.3 1.1-.2.3-.4.5-.7.7-.3.2-.6.3-1 .4-.4.1-.8.1-1.1.1-.4 0-.8 0-1.2-.1-.4-.1-.7-.2-1-.4-.3-.2-.5-.5-.7-.8-.2-.3-.3-.7-.3-1.2h1.2c0 .5.1.7.2.9zM349.7 59.3c.1.2.3.3.5.4.2.1.4.2.6.2.2 0 .5.1.7.1h.6c.2 0 .4-.1.6-.2.2-.1.3-.2.4-.3.1-.1.2-.3.2-.6s-.1-.6-.4-.7c-.2-.2-.5-.3-.9-.4l-1.2-.3-1.2-.3c-.4-.1-.7-.4-.9-.6-.2-.3-.4-.6-.4-1.1 0-.4.1-.7.3-1 .2-.3.4-.5.6-.7.3-.2.6-.3.9-.4.3-.1.7-.1 1-.1.4 0 .8 0 1.2.1.4.1.7.2.9.4.3.2.5.4.7.7.2.3.3.7.3 1.1H353c0-.2-.1-.4-.2-.6-.1-.2-.2-.3-.4-.4-.2-.1-.3-.2-.5-.2s-.4-.1-.6-.1h-.6c-.2 0-.4.1-.5.2-.2.1-.3.2-.4.3-.1.1-.1.3-.1.5s.1.4.2.5c.1.1.3.3.6.3.2.1.5.2.8.2.3.1.6.1.9.2.3.1.6.1.9.2.3.1.6.2.8.4.2.2.4.4.5.6.1.2.2.5.2.9 0 .5-.1.8-.3 1.1-.2.3-.4.5-.7.7-.3.2-.6.3-1 .4-.4.1-.8.1-1.1.1-.4 0-.8 0-1.2-.1-.4-.1-.7-.2-1-.4-.3-.2-.5-.5-.7-.8-.2-.3-.3-.7-.3-1.2h1.2c.1.5.1.7.2.9zM361.3 60.5c-.6.4-1.3.6-2.1.6-.6 0-1.1-.1-1.6-.3-.4-.2-.8-.5-1.1-.8-.3-.3-.5-.8-.7-1.2-.1-.5-.2-1-.3-1.6 0-.6.1-1.1.3-1.6.2-.5.4-.9.7-1.2.3-.3.7-.6 1.1-.8.4-.2.9-.3 1.4-.3.7 0 1.2.1 1.7.4.4.3.8.6 1.1 1 .3.4.4.9.5 1.4.1.5.1 1 .1 1.4h-5.6c0 .3 0 .6.1.9.1.3.2.6.4.8.2.2.4.4.7.5.3.1.7.2 1.1.2.5 0 .9-.1 1.3-.4.3-.2.6-.6.7-1.1h1.2c-.1 1-.4 1.6-1 2.1zm-.3-4.8c-.1-.3-.3-.5-.4-.7-.2-.2-.4-.3-.7-.4-.3-.1-.5-.2-.8-.2-.3 0-.6.1-.9.2-.3.1-.5.3-.7.5-.2.2-.3.4-.4.7-.1.3-.2.5-.2.8h4.3c0-.4-.1-.7-.2-.9zM364.7 59.3c.1.2.3.3.5.4.2.1.4.2.6.2.2 0 .5.1.7.1h.6c.2 0 .4-.1.6-.2.2-.1.3-.2.4-.3.1-.1.2-.3.2-.6s-.1-.6-.4-.7c-.2-.2-.5-.3-.9-.4l-1.2-.3-1.2-.3c-.4-.1-.7-.4-.9-.6-.2-.3-.4-.6-.4-1.1 0-.4.1-.7.3-1 .2-.3.4-.5.6-.7.3-.2.6-.3.9-.4.3-.1.7-.1 1-.1.4 0 .8 0 1.2.1.4.1.7.2.9.4.3.2.5.4.7.7.2.3.3.7.3 1.1H368c0-.2-.1-.4-.2-.6-.1-.2-.2-.3-.4-.4-.2-.1-.3-.2-.5-.2s-.4-.1-.6-.1h-.6c-.2 0-.4.1-.5.2-.2.1-.3.2-.4.3-.1.1-.1.3-.1.5s.1.4.2.5c.1.1.3.3.6.3.2.1.5.2.8.2.3.1.6.1.9.2.3.1.6.1.9.2.3.1.6.2.8.4.2.2.4.4.5.6.1.2.2.5.2.9 0 .5-.1.8-.3 1.1-.2.3-.4.5-.7.7-.3.2-.6.3-1 .4-.4.1-.8.1-1.1.1-.4 0-.8 0-1.2-.1-.4-.1-.7-.2-1-.4-.3-.2-.5-.5-.7-.8-.2-.3-.3-.7-.3-1.2h1.2c0 .5.1.7.2.9zM380.4 52c-.5-.3-1-.5-1.8-.5-.3 0-.6 0-.9.1-.3.1-.5.2-.7.3-.2.1-.4.3-.5.5-.1.2-.2.5-.2.8 0 .3.1.6.3.8.2.2.4.4.8.5.3.1.7.2 1.1.3l1.2.3 1.2.3c.4.1.7.3 1.1.5.3.2.6.5.8.8.2.3.3.8.3 1.3s-.1 1-.4 1.4c-.2.4-.6.7-.9 1-.4.2-.8.4-1.3.5-.5.1-1 .2-1.4.2-.6 0-1.1-.1-1.6-.2s-1-.4-1.4-.7c-.4-.3-.7-.7-.9-1.1-.2-.5-.3-1-.3-1.6h1.3c0 .4.1.8.3 1.1.2.3.4.6.7.8.3.2.6.4 1 .4.4.1.7.1 1.1.1.3 0 .6 0 .9-.1.3-.1.6-.2.8-.3.3-.1.5-.3.6-.6.2-.2.2-.5.2-.9s-.1-.6-.3-.9c-.2-.2-.4-.4-.8-.5-.3-.1-.7-.3-1.1-.3l-1.2-.3-1.2-.3c-.4-.1-.7-.3-1.1-.5-.3-.2-.6-.5-.8-.8-.2-.3-.3-.7-.3-1.2s.1-1 .3-1.3c.2-.4.5-.7.8-.9.4-.2.8-.4 1.2-.5.4-.1.9-.2 1.4-.2.5 0 1 .1 1.5.2s.8.3 1.2.6c.3.3.6.6.8 1 .2.4.3.9.3 1.5h-1.3c-.1-.7-.4-1.2-.8-1.6zM387.6 53.5v1.1h-1.5V59.5c0 .1.1.2.1.2.1 0 .2.1.3.1h1.1v1.1h-.9c-.3 0-.6 0-.8-.1-.2 0-.4-.1-.5-.2-.1-.1-.2-.3-.3-.5-.1-.2-.1-.5-.1-.8v-4.7h-1.3v-1.1h1.3v-2.2h1.2v2.2h1.4zM388.8 55.7c.2-.5.4-.9.7-1.2.3-.4.7-.6 1.1-.8.5-.2 1-.3 1.6-.3.6 0 1.1.1 1.6.3.4.2.8.5 1.1.8.3.4.5.8.7 1.2.2.5.2 1 .2 1.5s-.1 1.1-.2 1.5c-.2.5-.4.9-.7 1.2-.3.4-.7.6-1.1.8-.4.2-1 .3-1.6.3-.6 0-1.1-.1-1.6-.3-.5-.2-.8-.5-1.1-.8-.3-.4-.5-.8-.7-1.2-.2-.5-.2-1-.2-1.5-.1-.5 0-1 .2-1.5zm1.2 2.7c.1.4.3.6.5.9.2.2.5.4.7.5.3.1.6.2.9.2.3 0 .6-.1.9-.2.3-.1.5-.3.7-.5.2-.2.4-.5.5-.9.1-.4.2-.8.2-1.2 0-.5-.1-.9-.2-1.2-.1-.4-.3-.6-.5-.9-.2-.2-.5-.4-.7-.5-.3-.1-.6-.2-.9-.2-.3 0-.6.1-.9.2-.3.1-.5.3-.7.5-.2.2-.4.5-.5.9-.1.4-.2.8-.2 1.2 0 .5.1.9.2 1.2zM398.3 53.5V55c.3-.6.7-1.1 1.1-1.3.4-.3 1-.4 1.6-.4v1.3c-.5 0-.9.1-1.3.2-.3.1-.6.3-.8.6-.2.3-.4.6-.5.9-.1.4-.1.8-.1 1.3v3.3h-1.2v-7.5h1.2zM407 60.5c-.6.4-1.3.6-2.1.6-.6 0-1.1-.1-1.6-.3-.4-.2-.8-.5-1.1-.8-.3-.3-.5-.8-.7-1.2-.1-.5-.2-1-.3-1.6 0-.6.1-1.1.3-1.6.2-.5.4-.9.7-1.2.3-.3.7-.6 1.1-.8.4-.2.9-.3 1.4-.3.7 0 1.2.1 1.7.4.4.3.8.6 1.1 1 .3.4.4.9.5 1.4.1.5.1 1 .1 1.4h-5.6c0 .3 0 .6.1.9.1.3.2.6.4.8.2.2.4.4.7.5.3.1.7.2 1.1.2.5 0 .9-.1 1.3-.4.3-.2.6-.6.7-1.1h1.2c0 1-.4 1.6-1 2.1zm-.2-4.8c-.1-.3-.3-.5-.4-.7-.2-.2-.4-.3-.7-.4-.3-.1-.5-.2-.8-.2-.3 0-.6.1-.9.2-.3.1-.5.3-.7.5-.2.2-.3.4-.4.7-.1.3-.2.5-.2.8h4.3c-.1-.4-.1-.7-.2-.9z"/></svg>