<svg xmlns="http://www.w3.org/2000/svg" xmlns:xlink="http://www.w3.org/1999/xlink" viewBox="0 0 2499.72 2021"><defs><style>.a{fill:url(#a);}.b{fill:url(#b);}.c{fill:url(#c);}.d{fill:#231f1f;}</style><linearGradient id="a" x1="-7570" y1="1975.32" x2="-6729.3" y2="1478.56" gradientTransform="translate(2006.29 1007.65) scale(0.12)" gradientUnits="userSpaceOnUse"><stop offset="0" stop-color="#909ca9"/><stop offset="1" stop-color="#ededee"/></linearGradient><linearGradient id="b" x1="-7551.13" y1="-7387.17" x2="-6874.68" y2="-7387.17" gradientTransform="translate(2006.29 1007.65) scale(0.12)" gradientUnits="userSpaceOnUse"><stop offset="0" stop-color="#939fab"/><stop offset="1" stop-color="#dcdee1"/></linearGradient><radialGradient id="c" cx="-8316.16" cy="-5966.5" r="898.12" gradientTransform="matrix(-0.11, -0.02, 0.03, -0.23, 773.44, -1004.57)" gradientUnits="userSpaceOnUse"><stop offset="0" stop-color="#ee352c"/><stop offset="1" stop-color="#a91d22"/></radialGradient></defs><title>microsoft-sql-server</title><path class="a" d="M1694.88,643.52l-276.05,90.14-240.17,106-67.19,17.74c-17.11,16.27-35.06,32.76-54.46,49.45-21.29,18.36-41.11,35.06-56.34,47.16-16.9,13.35-41.94,38.39-54.67,54.25-19,23.78-34,49-40.48,68.44-11.48,35.06-5.84,70.53,16.28,103.29,28.37,41.73,84.92,84.29,150.86,113.3,33.59,14.82,90.14,33.8,132.7,44.44,70.74,18,207.62,37.35,283,40.28,15.23.62,35.68.62,36.51,0,1.67-1,13.36-23.37,26.92-51.12,46.32-94.53,79.71-183.21,97.86-259,10.85-45.91,19.41-107,25-179.45,1.46-20.24,2.08-88,.83-111-1.88-37.56-5.22-68-10.43-97.86-.83-4.38-1-8.35-.63-8.55.84-.63,3.34-1.46,37.35-11.27l-6.88-16.28Zm-63,36.93c2.5,0,9.18,64.06,10.85,104.54.41,8.56.2,14.19-.21,14.19-1.67,0-35.27-19.82-59.26-34.84-20.87-13.15-60.51-39.44-66.77-44.45-2.09-1.46-1.88-1.67,15.23-7.51C1560.71,702.57,1629.57,680.45,1631.87,680.45Zm-140.64,46.33c1.88,0,6.68,2.71,18.15,9.8,43,26.92,101.41,59.47,126.45,70.32,7.72,3.34,8.55,2.09-9.18,14.19-38,25.88-85.34,51.33-143.35,77-10.23,4.59-18.78,8.13-19,8.13-.41,0,.84-5.21,2.5-11.47,14-52,21.91-104.54,22.33-146.69.21-20.87.21-20.87,2.09-21.49-.42.21-.21.21,0,.21Zm-29,11.05c1.25,1.25.41,48-1.26,60.72a529.79,529.79,0,0,1-19.19,90.77c-2.3,7.72-4.39,14.19-4.8,14.61-.84,1-29.42-26.92-38.81-37.77-16.28-18.78-29-37.56-38.4-55.92-4.8-9.39-12.31-27.75-11.68-28.38,3.34-2.29,113.3-44.86,114.14-44Zm-136.47,53.63a.77.77,0,0,1,.63.21,39.47,39.47,0,0,1,3.13,7.51c6.67,18.15,21.7,44.86,34.64,62,14.18,18.78,32.76,38.81,48.19,52,5,4.17,9.6,8.13,10.23,8.76,1.25,1.25,1.67,1-32.34,14-39.44,15-82.42,30-131.67,45.91q-17.64,5.68-35.26,11.47c-1.88.63-1.25-.41,4.17-9,24.42-38.18,61.56-113.09,82.42-166.09,3.55-9.18,7.1-18.36,7.73-20.45.83-2.92,1.87-4,4.58-5.43a20.59,20.59,0,0,1,3.55-.83ZM1284,808.78c.63.42-10,22.74-20.45,43.19-20.24,39.44-42.36,78.25-72,125.41-5,8.13-9.8,15.65-10.43,16.48-1,1.46-1.46,1-4.8-5.42-7.09-14-12.94-31.93-16.07-48.41-3.13-16.28-2.5-44.66,1-62.18,2.71-12.94,2.5-12.73,8.76-15.86,26.71-13.56,113.1-54,113.93-53.21ZM1644,823.39v8.76c0,46.53-5,110.38-12.31,156.91-1.26,8.14-2.3,14.82-2.51,15,0,0-6.05-1.67-13.14-3.76a539.36,539.36,0,0,1-96-41.1c-20.24-11.06-49.66-29.22-48.82-30.05.2-.21,9-4.8,19.19-10.23,40.9-21.28,80.13-44.23,114.14-67,12.73-8.55,31.92-22.32,36.1-26.08l3.34-2.5Zm-517.48,61.76c.84,0,.63,1.67-.63,9.18-.83,5.42-1.87,15.44-2.29,22.32-1.67,30.47,3.34,53,18.36,83.89,4.18,8.55,7.52,15.65,7.31,15.85-1.47,1.26-139.6,41.74-183,53.63-12.94,3.55-24.2,6.68-25,6.88-1.46.42-1.67.22-1-3.34,4.8-30.67,28.17-70.73,60.72-104.53,21.7-22.54,39-35.68,68.65-52.59,21.28-12.1,54-30.25,56.54-31.08,0-.21.21-.21.42-.21ZM1452,943.36c.21-.2,5.22,2.51,11.27,6.06,44.65,25.87,106.83,49.87,159.83,62.18l4.8,1-6.68,3.75c-27.75,15.45-118.93,53.42-212.2,88.27-13.57,5-26.92,10-29.43,11.06s-4.8,1.67-4.8,1.46,3.76-7.52,8.56-16.49c26.08-48.82,52.37-108.29,65.73-149.61,1.67-4,2.71-7.51,2.92-7.72Zm-33.17,10.85c.21.22-1.46,4.6-3.55,9.6-18.15,44-42,92-72.41,145.86-7.72,13.77-14.19,24.83-14.4,24.83s-6.47-3.76-14-8.35c-44.23-27.12-83.46-60.51-109.12-92.85l-3.76-4.59,19-5.22c68-18.57,125.83-38.6,183.21-63.22C1411.94,956.93,1418.62,954.21,1418.83,954.21Zm206.15,72h0c.21,4.8-10.43,47.79-19.2,78.87-7.3,26.09-13.56,46.54-25,82.63-5,15.87-9.38,29-9.59,29a13.76,13.76,0,0,1-2.72-.63c-62-11.27-117.47-26.92-169.64-47.78-14.6-5.84-35.47-15.23-36.72-16.28-.42-.42,12.1-6.26,28-13.14,94.94-41.53,193.43-88.68,227.23-108.92,4-2.51,7.09-3.76,7.72-3.76ZM1149,1042.48c.42.42-26.08,38.6-63.23,90.56-12.93,18.15-28,39.43-33.59,47.36s-14.19,20.45-19,28l-8.77,13.57-9.39-7.93c-11.06-9.18-30.25-28.8-38.8-39.65-18-22.32-30-45.9-34.85-67.39-2.3-10-2.3-15-.21-15.65,3.13-.84,58.84-14,111-26.09,29-6.67,62.59-14.6,74.7-17.52s21.91-5.22,22.12-5.22Zm26.71,10.22,6.67,7.51c30,33.6,60.72,58.43,97.86,80.13,6.68,3.76,11.69,7.09,11.27,7.31-1.46,1-129,46.31-188,66.76-33.18,11.69-60.51,21.08-60.72,21.08a35.72,35.72,0,0,1-4.18-2.71l-3.75-2.72,6-8.76c19.61-28.38,44.24-59.47,97.86-124.15l36.94-44.45Zm166.51,119.15c.2-.21,9.39,3.13,20.65,7.3,27.13,10.23,48.62,16.69,77.42,24,35.47,9,86.8,17.73,117.06,20.24,4.59.41,7.09.83,6.26,1.46-1.47.83-32.14,11.06-54.67,18.15-35.9,11.27-145.44,43.61-234.75,69.28-16.48,4.8-30.67,8.76-31.5,9-2.09.42-9-1.46-9-2.3,0-.41,5-6.88,11.06-14a1238.24,1238.24,0,0,0,84.72-113.92c6.88-10.44,12.73-19,12.73-19.2Zm-36.73,1c.21.21-14.6,24-40.48,64.89-11.06,17.32-23.37,36.94-27.75,43.82-4.17,6.68-10.43,17.11-14,23l-6,10.65-3.13-.84c-7.51-2.08-60.3-20.66-74.29-26.29a517.86,517.86,0,0,1-48.61-22.32c-16.7-9-37.56-22.33-35.89-22.75.41-.21,29-7.93,63.43-17.32,91.39-24.83,142.1-39.23,175.28-49.66,6-1.88,11.26-3.34,11.47-3.13Zm259.78,60.93h.21c.84,2.09-33,96-45.28,125.61-2.71,6.68-3.75,8.35-5.21,8.14-3.55-.21-52.58-7.09-82.43-11.48-51.95-7.92-139.17-23.16-161.08-28.16l-5-1,31.09-7.1c66.77-15,98.91-23.16,131.46-33.17a928.76,928.76,0,0,0,122.9-47.37c6.47-2.92,11.89-5.21,13.35-5.42Z" transform="translate(-0.14 0)"/><path class="b" d="M1410.27,0c-4.59-.62-78.67,26.08-126.45,45.49-64.48,26.29-114.55,51.33-145.43,73-11.48,8.14-25.88,22.54-28.17,28.17a19.6,19.6,0,0,0-1.25,7.09l28,26.5,66.56,21.29L1361.86,230,1543,261.05l1.88-15.65c-.63,0-1-.21-1.67-.21l-23.79-3.76-4.8-8.55c-24.62-43.41-51.75-97.24-67.6-133.55-12.31-28.17-24-60.71-30.47-84.09-3.55-14.18-4-15-6.25-15.23h0Zm-3.34,10.64h.21c.21.21,1,6.06,1.88,12.94,3.54,29.21,10,57.38,20.24,87.85,7.72,22.95,7.72,21.7-1.25,19-21.29-5.84-116.64-22.32-185.71-31.92-11.06-1.46-20.45-2.92-20.45-3.13-.83-.83,49.87-27.34,72.2-37.77,28.58-13.14,107-45.9,112.88-46.95Zm-201.15,93.48,8.14,2.71c44.24,15,155.45,36.31,216.8,41.32,6.88.63,12.73,1.25,12.93,1.25.21.21-5.63,3.34-13.14,6.89-29.63,14.81-62.18,33-84.72,46.95-6.67,4.17-12.73,7.51-13.56,7.51s-5.21-.84-9.8-1.46l-8.35-1.26-20.86-20.45c-36.73-35.67-65.53-63.22-76.58-73.65Zm-8.34,6.47,29.42,36.73c16.06,20.24,32.34,40.06,35.89,44.44s6.47,7.93,6.26,8.14c-.84.62-42.57-7.52-64.69-12.52-22.74-5.22-32.13-7.72-46.11-12.1l-11.48-3.76v-2.92c.21-14,18-34.85,48-56.13l2.71-1.88Zm250,50.08c.84,0,1.88,1.88,4.38,7.51,7.1,15.65,29.22,57.8,34.64,65.94,1.67,2.71,4.59,2.92-24.83-1.88-70.73-11.48-93.48-15.23-93.48-15.65a21.6,21.6,0,0,1,4.8-3.13,406.75,406.75,0,0,0,63.64-44c4.8-4,9.18-7.72,10-8.34.2-.42.62-.63.83-.42Z" transform="translate(-0.14 0)"/><path class="c" d="M1111.68,143.78s-4.59,7.3-.21,18.15c2.71,6.68,10.64,14.82,19.61,23.16,0,0,92.86,90.56,104.12,103.5,51.33,59.26,73.66,117.68,75.75,198.23,1.25,51.74-8.56,97.23-33,150-43.4,94.74-135,199.28-276.27,315.29l20.66-6.88c13.35-10,31.51-20.66,74.07-44,98.28-53.84,208.87-103.29,344.5-154.2,195.3-73.45,516.44-159.42,699.22-187.38l19-2.92-2.92-4.59c-16.69-25.88-28.17-41.94-41.95-59.05-40.06-49.67-88.67-89.94-148.14-123.32-81.8-45.7-187.59-81.38-321.55-107.88-25.24-5-80.75-14.61-125.82-21.49-95.57-14.81-157.33-25-225.35-36.72-24.41-4.18-60.93-10.44-85.14-15.65-12.52-2.72-36.51-8.35-55.29-14.82-15-5.84-36.72-11.69-41.31-29.42Zm53.83,52.16c.21-.2,3.55,1.05,7.93,2.51,7.93,2.71,18.15,5.84,30.26,9.18q13.74,3.78,27.54,7.3c12.52,3.13,23,6,23.16,6,1.46,1.46,22.54,68.86,29.63,94.73,2.71,9.81,4.8,18.15,4.59,18.15-.21.22-2.5-3.33-5.21-8.13-24.42-43-63-86.6-107.67-121.65a88.87,88.87,0,0,1-10.23-8.14Zm102.66,28.38a82.16,82.16,0,0,1,11.27,1.88c35.47,7.93,99.11,20,139.8,26.92,6.89,1,12.31,2.29,12.31,2.71s-2.5,1.88-5.63,3.55c-6.89,3.54-34.64,20-43.82,26.29-23.16,15.44-44,32.13-59,47.15-6,6.06-11.27,11.06-11.27,11.06s-1.25-3.54-2.3-7.93c-7.5-29-23.15-72-37.34-102.24a88.87,88.87,0,0,1-4.18-9.6c0,.42,0,.21.21.21Zm180.7,34.43c1.25.42,3.34,7.51,7.51,23.16a341.75,341.75,0,0,1,10,95.57c-.42,8.76-.84,16.9-1.25,17.94l-.63,2.09L1453.67,394c-22.33-7.09-58.63-17.74-89.72-26.5-17.74-4.8-32.13-9.18-32.13-9.6,0-1.25,25.87-27.12,36.93-36.93,21.07-18.57,78.24-62.81,80.12-62.18Zm14.4,2.09c.63-.63,86.39,14.18,125.4,21.7,29,5.63,71.16,14.39,73.66,15.44,1.25.41-3.13,2.92-17.11,9.18-55.09,24.83-96,47.15-136.67,74.28-10.64,7.1-19.62,12.94-19.82,12.94s-.42-6.05-.42-13.36c0-39.64-7.93-79.7-22.54-113.51C1464.31,264.18,1463.06,261.05,1463.27,260.84Zm221.8,43.82c.63.62-2.08,17.52-4.59,27.54-7.51,31.09-27.75,77.21-52.57,120.6-4.39,7.73-8.35,14-8.77,14.19s-6.05-2.92-12.52-6.68c-24.21-14.18-51.75-27.54-81.8-40.06-8.34-3.54-15.64-6.47-15.85-6.88-1.47-1.26,65.72-45.7,101.2-67,28.17-17.11,74.07-42.57,74.9-41.73Zm15.86,2.5c1.88,0,39.86,10.43,59.68,16.28,49,14.6,105.37,35.26,142.09,51.95l15.23,6.89-10.63,2.5c-89.72,20.66-166.51,44.45-240.59,74.49-6,2.51-11.48,4.59-11.89,4.59s1.67-4.79,4.38-10.64c22.33-47.36,36.73-96.82,40.27-139,.21-4,.83-7.09,1.46-7.09ZM1322.84,394c.63-.62,29.63,6.26,45.28,10.64,23.79,6.68,74.28,23.58,74.28,24.83,0,.21-5.63,5-12.31,10.86C1402.76,463,1376.47,487,1345,517.49c-9.39,9-17.32,16.28-17.74,16.28s-.62-1.26-.41-2.93c4.79-35.05,3.75-80.12-2.92-125.82C1323.26,399.18,1322.63,394.17,1322.84,394Zm609.5.63c.41.41-13.36,22.12-22.12,34.43-12.52,17.94-30.89,41.73-72.41,93.9-21.9,27.54-46.53,58.63-54.66,69.06-8.35,10.43-15.24,19.2-15.45,19.2a71.61,71.61,0,0,1-5.84-8.35,431.17,431.17,0,0,0-84.51-93.27c-6.26-5.22-13.14-10.85-15.44-12.52a23.27,23.27,0,0,1-4.17-3.55c0-.62,35.47-15.86,62.39-26.71,47.16-19.19,111.42-42.14,159.62-57,25.25-7.93,52.17-15.65,52.59-15.23Zm16.06,4.17c.84-.21,5.85,2.3,11.9,5.84,50.7,29,100.36,66.36,139.59,104.75,11.06,10.85,38.39,39.23,38,39.44,0,0-9.59.83-20.86,1.67-87.85,6.68-200.31,25.24-308.4,51.32-7.3,1.67-13.77,3.13-14.19,3.13s7.72-8.13,17.95-17.94c63.43-61.14,92.44-99.74,126.66-168.6,4.79-10.22,9-19,9.38-19.61Zm-464.68,47.58c2.92.62,30,13.35,50.49,23.57,18.78,9.39,47,24.42,48.41,25.67.21.21-9.81,5.42-22.11,11.48-39.23,19.61-72.83,38.18-107.88,59.46-10,6.05-18.36,11.06-18.57,11.06-.84,0-.63-.83,5-11.06,18.78-34.22,33.8-75.11,42.35-115,.84-3.13,1.67-5.21,2.3-5.21Zm-27.13,5c.63.63-6.47,26.29-10.85,40.27a513,513,0,0,1-36.93,84.72c-3.34,5.84-8.35,14.4-11.06,19.19l-5.22,8.35-11.68-11.26c-13.56-13.15-24.62-21.29-38.81-28.59-5.64-2.92-10-5.43-10-5.84,0-1.67,35.68-34,63-57.38,19.61-16.91,60.93-50.08,61.55-49.46Zm165.89,68.24,10.22,6.67a792.92,792.92,0,0,1,72,53.21c11.89,9.8,34.84,30.47,39.44,35.47l2.5,2.72-16.9,4.8c-95.57,26.49-169.43,50.07-255.61,81.79-9.6,3.55-17.74,6.47-18.37,6.47-1.24,0-2.29,1,19.2-18.78,55.09-50.7,103.92-106.63,140.22-161.09l7.31-11.26Zm-43.61,10.85c.41.41-28.17,40.68-45.28,63.43-20.45,27.12-56.76,72.61-81.8,102.24-10.43,12.31-19.4,22.53-19.82,22.74-.63.21-.83-2.92-.83-7.72,0-25.25-6.47-52.16-17.74-75.11-4.8-9.6-5.64-11.9-4.59-12.94,4-3.55,64.68-38.19,103.08-58.84,25.87-13.77,66.35-34.22,67-33.8Zm-263.75,64.68c.63,0,5.43,2.5,10.85,5.43a229.05,229.05,0,0,1,35.89,24.2c.42.42-5,4.8-12.1,10-19.82,14.19-49.87,36.94-67.4,50.92-18.36,14.61-19,15-16.9,11.89,13.77-21.07,20.66-33,28-48.2A387.71,387.71,0,0,0,1311,605.75c1.67-6,3.75-10.64,4.17-10.64Zm70.32,55.09c1-.21,2.3,1.67,7.93,10,11.89,17.74,21.07,41.53,23.37,60.72l.41,4.18-28.58,11.06c-51.12,19.82-98.28,39.43-130.21,54-9,4.17-24.62,11.68-34.84,16.69-10.22,5.22-18.57,9.18-18.57,9s6.47-5,14.39-10.85c62.4-45.27,116.44-94.94,156.92-144.6,4.38-5.22,8.35-10,8.76-10.22Zm-32.34,7.93c.83.83-22.95,27.75-39.23,44.23-40.27,41.11-80.13,73.24-129.58,104.54-6.26,4-11.89,7.51-12.52,7.93-1.46.84.42-1.25,22.12-24.83,13.77-14.82,24.2-27.34,36.1-42.77,7.93-10.23,9.39-11.69,20.87-19.83C1281.53,705.28,1352.26,657.29,1353.1,658.13Z" transform="translate(-0.14 0)"/><path class="d" d="M449.53,1522.12c-3.85,0-7.7.37-11.51.37-77.75,4.14-130.18,38.36-160.84,105.18-26.22,60.43-23.36,139.42.29,200.22,27.51,59.4,71.95,90.76,146.14,102.6,15.69,2.57,26.22,11.19,56.62,46.68l37.4,43.83h67.84l-45.11-45.48c-24.93-24.93-45.1-46.64-45.1-48.55s9.54-6.09,21.08-9.61c38.07-11.52,69.68-40.92,91.79-86,17.9-36.2,20.47-47.38,23-92.41,6.72-134-63.95-217.83-181.63-216.88v0ZM509,1872.63c-33,16-80.93,19.17-112.21,7.7-32.34-11.88-63.66-45.47-77.75-83.5-15.65-41.59-13.42-118.3,4.48-152.85,28.79-55,66.85-80.31,122.48-80.31,82.51,0,129.45,50.54,135.58,145.51,4.84,79.29-21.71,138.77-72.54,163.41Zm1172-236c-28.46,0-50.24,11.52-64.91,34.21l-11.52,18v-46.72h-49.25v280.17h49.22v-89.55c0-81.89,1-91.46,12.46-113.86,15.77-30.73,42.91-46.06,69.13-38.72l17.6,5.13v-48.55H1681v-.08ZM1391.62,1634a141.7,141.7,0,0,0-30.07,3.53c-65.9,17.23-103,80.3-100.78,145.21,0,54.35,10.56,81.52,36.79,110,53.72,44.07,102.31,47.59,167.88,23.94,11.18-4.76,23.36-10.26,23.36-10.26V1862.4l-23.36,12.1c-53.07,23.1-93,23.1-125-4.11-20.42-20.79-29.41-45.73-33.55-74.18h198.57v-37.78c0-77-46.35-125.63-113.83-124.39Zm-80.31,122.85s7.33-48,34.54-66.89a74.29,74.29,0,0,1,42.83-13.71,68.53,68.53,0,0,1,41.59,14c24.94,19.17,29.12,66.19,29.12,66.19H1311.31v.36ZM124,1706.36c-53.39-32.34-77.08-55.67-74.19-83.17,8.29-76.09,102.32-65.57,154.39-36.78l.37-51.19s-28.79-12.47-70-13.13c-63.29-1-104.22,19.8-123.39,62C-17,1646.48,7.9,1693.49,98,1745.93c50.61,29.44,73,55,73,82.87,0,57.58-69.41,77.68-141,41.55-14.74-7.33-27.21-13.46-27.87-13.46-2.57,16.33-1.25,55.38-1.25,55.38s22,9.24,55,15.62c81.85,16.32,156.33-22.08,163.37-84.42,6.12-58.52-15-89.22-95.24-137.15v0Zm1992.83-73a149,149,0,0,0-30.44,3.56c-65.82,17.24-102.9,80.31-100.37,145.22,0,54.28,10.53,81.19,36.75,109.65,53.72,44.11,102.31,47.67,168.21,24,11.15-4.76,23.29-10.19,23.29-10.19v-44.15L2191,1873.62c-53.18,23-93.15,23-125-4.18-20.54-20.75-29.45-45.4-33.6-74.19h198.25v-37.77c0-76.64-46.36-125.3-113.83-124l.11-.08Zm-80.31,122.85s7.41-48,34.58-67.18a73.84,73.84,0,0,1,42.8-13.75,68.52,68.52,0,0,1,41.59,14.08c24.93,19.18,29.11,66.52,29.11,66.52h-148l0,.33ZM1133.82,1707c-53.39-32.27-77-55.67-74.15-83.17,8.29-76.13,102.31-65.57,154.39-36.78l.36-51.19s-28.78-12.47-70-13.06c-63.3-1-104.22,19.81-123.43,62-28.13,62.34-2.86,109.35,87,161.79,50.54,29.42,72.9,54.65,72.9,82.51,0,57.58-69.38,78-141,41.55-14.67-7.33-27.13-13.38-27.87-13.38-2.57,16.31-1.24,55.37-1.24,55.37s21.74,8.91,54.64,15.62c81.92,16.36,156.44-22,163.44-84.34,6.09-58.24-15-88.93-95-136.9V1707Zm1272.39-71c-28.46,0-50.5,11.55-64.91,34.25l-11.52,17.9v-46.65h-49.25v280.1h49.21V1832c0-81.85,1-91.46,12.48-113.83,15.76-30.69,42.9-46.06,69.12-38.69l17.6,5.13V1636h-22.73Zm-1664,69.42V1526.92H692.52v395.25H901.33v-46.68H742.17V1705.37ZM1890.42,1761l-40.92,106.49-39.35-107.08-40-118.66h-50.83c32.93,93.36,68.76,188.34,104.88,280.42,15.66.37,31.35,0,47,0l55.27-138.76,56.29-141.63h-48.59S1912.75,1698,1890.39,1761l0,0ZM856.58,1419.22c8,0,14.67-2.56,20.17-8.06a26.74,26.74,0,0,0,8.29-19.81,26.26,26.26,0,0,0-8.29-19.8,27.58,27.58,0,0,0-19.8-7.7c-8.07,0-14.74,2.57-20.17,8s-8,12.11-8,19.81c0,8.06,2.56,14.74,8,19.8,5.14,5.13,11.81,7.7,19.8,7.7v.07ZM839,1373.75c4.77-4.77,10.56-7,18-7a24.42,24.42,0,0,1,24.94,24.57,24.67,24.67,0,0,1-7.33,17.9,24,24,0,0,1-17.61,7c-7.08,0-12.83-2.2-17.6-7a24.63,24.63,0,0,1-7.33-17.9C832,1384.31,834.22,1378.52,839,1373.75Zm11.85,20.17h3.22c2.28,0,4.51,2.2,6.42,6.38l3.85,8.65h6l-4.76-9.61c-2-3.84-3.85-6.08-6.09-6.71,2.82-.66,5.06-1.61,6.67-3.52a8.82,8.82,0,0,0,2.2-6.42,8.15,8.15,0,0,0-2.86-6.74c-2.2-1.84-5.72-2.83-10.27-2.83H845.07V1409h5.13v-15Zm0-16.65h4.47c3.23,0,5.5.66,6.75,1.61s1.54,2.21,1.54,4.48c0,4.14-2.57,6.09-7.33,6.09h-5.5v-12.18Zm-820.2,13.46c0-12.47-.36-21.75-.66-27.21h.3A82,82,0,0,0,34.41,1378l47.67,106.49h8L137.75,1377a97,97,0,0,0,4.14-13.46h.37c-.95,10.64-1.28,19.88-1.28,27.25v94h16.31V1345.07H136.83L93,1442.25c-1.61,3.85-3.85,9.61-6.71,17.24h-.66a112.68,112.68,0,0,0-6.38-16.58l-42.84-98.17H14.68v139.72H30.37V1390.8l.26-.07Zm162.42.26h14.08v87H193.05Zm7-31.91a9.94,9.94,0,0,0,7.34-2.93,10.19,10.19,0,0,0,3.23-7.33,9.23,9.23,0,0,0-3.2-7.34,10.28,10.28,0,0,0-7.4-2.94,10.08,10.08,0,0,0-7.34,2.94,10.31,10.31,0,0,0-3.22,7.34,8.83,8.83,0,0,0,3.22,7.33,10.57,10.57,0,0,0,7.34,2.93Zm107.45,120.84v-15.33c-7.7,5.75-16,8.62-24.57,8.62-10.26,0-18.59-3.52-24.68-10.27s-9.28-16-9.28-27.51c0-12.1,3.23-21.71,9.9-29q9.63-10.56,24.94-10.56a40.92,40.92,0,0,1,23.69,7.7v-16.32c-6.71-3.52-14.37-5.13-23-5.13-16,0-28.45,5.13-37.77,15s-14,23.36-14,39.6c0,14.45,4.15,26.59,12.77,35.87,9,9.53,20.46,14.37,34.54,14.37,10.89-.3,19.8-2.57,27.5-7Zm40.3-46.39c0-11.48,2.57-20.76,7.33-27.14q6.72-8.64,16.32-8.66c5.43,0,9.28,1,12.1,3.23v-16.65c-2.2-1-5.39-1.28-9.53-1.28a24.33,24.33,0,0,0-15.4,5.5c-4.77,3.77-8.58,9.53-10.82,16.87h-.36V1385h-16v99.75h16v-51.19Zm91.79,53.17c15,0,27.14-4.84,36.12-14.45s13.42-22.37,13.42-38.36c0-16.32-4.1-28.79-12.47-38.07s-19.8-13.75-34.84-13.75-27.13,4.48-36.12,13.13c-9.6,9.54-14.67,23-14.67,40.27,0,15,4.11,27.5,12.77,36.78,8.94,9.61,20.79,14.41,35.79,14.41v0Zm-22.74-81.27q9.14-9.62,24-9.61c10.27,0,18,3.2,23.69,9.61,5.75,6.72,8.62,16.29,8.62,29.08,0,12.18-2.57,21.75-8,28.17-5.42,6.71-13.42,10.26-24,10.26-10.27,0-18.23-3.55-24.32-10.26s-8.94-16-8.94-28.17c-.63-12.1,2.56-22,8.94-29.08ZM559.18,1478a26.21,26.21,0,0,0,9.32-20.47,25,25,0,0,0-7.34-18.22c-3.89-3.85-9.9-7.34-18.59-10.86-7.71-3.22-12.47-6.09-15-8.32a13.73,13.73,0,0,1-4.14-10.27,12.07,12.07,0,0,1,4.77-9.9c3.22-2.56,7.33-3.81,12.83-3.81a37.69,37.69,0,0,1,22.74,7.08v-16a46.82,46.82,0,0,0-21.46-4.77c-10.26,0-18.92,2.83-25.3,8.29a25.55,25.55,0,0,0-9.9,20.75c0,7.34,2.2,13.43,6.38,17.9,3.52,3.81,9.54,7.7,17.89,11.18,8,3.53,13.43,6.71,16.32,9.28a12.19,12.19,0,0,1,4.14,9.54c0,9.31-6.37,14.12-18.84,14.12A39.52,39.52,0,0,1,507,1464v17.23c7,4.19,15.33,6.09,24.57,6.09,11.84-.62,21.12-3.52,27.5-9.28l.08,0Zm76.13-95.94c-15,0-27.14,4.48-36.12,13.13-9.54,9.54-14.67,23-14.67,40.27,0,15,4.15,27.51,12.76,36.78,9,9.61,20.79,14.41,35.83,14.41,15.4,0,27.14-4.83,36.12-14.45s13.46-22.36,13.46-38.35c0-16.32-4.18-28.79-12.47-38.07-8.65-9.28-20.17-13.75-34.84-13.75l-.07,0Zm31,52.45c0,12.17-2.56,21.74-8,28.16-5.43,6.71-13.42,10.27-24,10.27-10.27,0-18.22-3.56-24.31-10.27s-8.95-16-8.95-28.16c0-12.84,3.19-22.74,9.61-29.42,6-6.38,14-9.6,24-9.6s17.86,3.22,23.62,9.6c5.13,7,8,16.62,8,29.42Zm43.2,49.9h16v-86.35h23.35v-13.43H725.48v-15.4c0-14,5.43-21,16.65-21a22.12,22.12,0,0,1,10.49,2.57v-14.41c-2.86-1.28-6.71-1.58-11.52-1.58-8.61,0-15.65,2.57-21.41,8-6.71,6.38-10.27,14.67-10.27,25.89V1385H692.55v13.42h16.87v86Zm65.53-27.21c0,19.52,8.62,29.45,26.22,29.45,6.39,0,11.19-1,15-3.3v-13.71a16.71,16.71,0,0,1-10.27,3.23c-5.42,0-9.24-1.29-11.48-4.19S791,1461,791,1454.32V1398h25.3v-13.42H791V1355.2c-5.5,1.9-10.89,3.52-16,5.13v24.27H757.79V1398H775v59.15Zm1716.22,183.87a27.45,27.45,0,0,0-19.8-7.7c-8.07,0-14.74,2.57-20.17,8.07a26.88,26.88,0,0,0-8,19.81c0,8,2.57,14.66,8,19.8s12.1,7.7,20.17,7.7,14.67-2.57,20.17-8a27,27,0,0,0,8.25-19.8c-.29-8.07-3.19-14.74-8.62-19.87Zm-2.56,37.78c-4.77,4.76-10.57,7-17.61,7a23.91,23.91,0,0,1-17.6-7,24.88,24.88,0,0,1-7.33-18,23.65,23.65,0,0,1,7-17.6c4.76-4.77,10.52-7,17.89-7a23.89,23.89,0,0,1,17.61,7,24.22,24.22,0,0,1,7.33,17.6C2496.05,1668.3,2493.85,1674,2488.72,1678.86Zm-14.38-16.32a13.86,13.86,0,0,0,6.71-3.52,8.8,8.8,0,0,0,2.2-6.45,8.16,8.16,0,0,0-2.86-6.72c-2.2-1.83-5.75-2.82-10.26-2.82h-10.2v35.79h5.14v-15h3.19c2.2,0,4.4,2.2,6.38,6.38l3.81,8.62h6.09l-4.76-9.61c-1.66-4.18-3.56-6.09-5.5-6.71l.06.08Zm-3.52-3.23h-5.5v-12.1h4.51c3.19,0,5.43.59,6.71,1.58s1.58,2.2,1.58,4.47c0,4.15-2.57,6.06-7.33,6.06ZM1578.64,1380.5h4.48v-35.83H1595v-4.47H1566.8v4.47h11.85v35.83Zm27.14-26.92a63.75,63.75,0,0,0-.26-7.95,23,23,0,0,0,1.25,4.14l13.75,30.73h2.2l13.79-31c.37-1,.66-2.2,1.29-3.84-.3,3.19-.3,5.75-.3,7.7v27.13h4.77V1340.2h-5.76L1624.05,1368c-.3,1-1.29,2.94-1.91,5.14h-.37a30.25,30.25,0,0,0-1.83-4.77l-12.47-28.16H1601v40.34h4.5v-26.92l.26,0Z" transform="translate(-0.14 0)"/></svg>